<?xml version="1.0" encoding="UTF-8" standalone="no"?>
<!DOCTYPE svg PUBLIC "-//W3C//DTD SVG 20010904//EN"
              "http://www.w3.org/TR/2001/REC-SVG-20010904/DTD/svg10.dtd">

<svg xmlns="http://www.w3.org/2000/svg"
     width="85.3766mm" height="45mm"
     viewBox="210 690 90 170">
  <path id="Unnamed #1"
        fill="none"
        stroke="white"
        stroke-width="5"
        stroke-dasharray="14"
        stroke-linecap="round"
        d="M 220.67,702.67
           C 220.67,702.67 222.67,721.33 239.33,736.67
             256.00,759.33 261.33,765.33 260.67,772.67
             260.00,780.00 259.33,790.00 252.00,794.67
             244.67,799.33 228.00,795.33 228.00,783.33
             228.00,771.33 232.67,764.00 242.67,762.00
             252.67,760.00 267.33,755.33 277.33,759.33
             287.33,763.33 287.33,775.33 288.00,784.00
             288.67,792.67 286.67,800.00 280.67,811.33
             274.67,822.67 272.00,830.67 264.00,836.00
             256.00,841.33 251.33,849.33 237.33,854.00" />
</svg>
