<svg xmlns="http://www.w3.org/2000/svg"
     viewBox="0 0 312 1085">
  <path
        fill="none" stroke="white" stroke-width="5" stroke-dasharray="14" stroke-linecap="round"
        d="M 107.00,3.00
           C 107.00,3.00 178.00,36.00 138.00,94.00
             98.00,152.00 138.00,184.00 138.00,184.00
             138.00,184.00 185.00,236.00 137.00,272.00
             99.00,319.00 89.00,320.00 62.00,327.00
             35.00,319.00 35.00,301.00 48.00,284.00
             61.00,267.00 105.00,270.00 120.00,325.00
             149.00,403.00 131.00,378.00 138.00,388.00
             145.00,398.00 145.00,453.00 189.00,471.00
             239.00,479.00 242.00,441.00 244.00,436.00
             246.00,431.00 234.00,402.00 206.00,410.00
             178.00,418.00 163.00,460.00 161.00,468.00
             140.00,533.00 139.00,537.00 140.00,568.00
             157.00,613.00 157.00,628.00 156.00,645.00
             155.00,662.00 148.00,701.00 140.00,706.00
             132.00,711.00 109.00,758.00 120.00,772.00
             131.00,786.00 194.00,837.00 165.00,855.00
             136.00,873.00 129.00,903.00 118.00,944.00
             107.00,985.00 112.00,1011.00 125.00,1039.00
             138.00,1067.00 145.00,1081.00 145.00,1081.00" />
</svg>
