<?xml version="1.0" encoding="UTF-8" standalone="no"?>
<!DOCTYPE svg PUBLIC "-//W3C//DTD SVG 20010904//EN"
              "http://www.w3.org/TR/2001/REC-SVG-20010904/DTD/svg10.dtd">

<svg xmlns="http://www.w3.org/2000/svg"
     width="85.3766mm" height="243mm"
     viewBox="175 55 260 950">
  <path id="Unnamed"
        fill="none"
        stroke="white"
        stroke-width="5"
        stroke-dasharray="14"
        stroke-linecap="round"
        d="M 200.67,70.33
           C 258.67,104.00 282.00,122.67 292.67,176.00
             292.00,220.67 266.00,237.33 228.00,274.67
             190.00,312.00 187.33,324.67 180.67,355.33
             168.67,398.67 194.67,433.33 235.33,472.00
             276.00,510.67 338.00,552.00 328.67,592.00
             319.33,632.00 307.33,628.00 285.33,634.00
             259.33,637.33 255.33,607.33 263.33,590.00
             277.33,563.33 312.67,546.67 348.00,582.67
             383.33,618.67 367.33,647.33 321.33,647.33
             267.33,643.33 263.33,642.00 237.33,654.67
             211.33,667.33 188.00,690.67 186.67,738.67
             192.67,773.33 193.33,826.67 271.33,861.33
             308.67,874.67 330.67,932.67 289.33,958.00
             278.00,978.00 214.00,955.33 215.33,1014.00" />
</svg>
